<svg id="nest_1_копия" data-name="nest 1 копия" xmlns="http://www.w3.org/2000/svg" viewBox="0 0 1919.53 504.71"><defs><style>.cls-1{font-size:385.01px;fill:#000001;font-family:MontserratAlternates-Bold, Montserrat Alternates;font-weight:700;}.cls-2{letter-spacing:0em;}.cls-3{letter-spacing:-0.01em;}.cls-4{letter-spacing:-0.02em;}</style></defs><title>Leleka logo</title><g id="Leleka"><text class="cls-1" transform="translate(563.65 390.48)"><tspan class="cls-2">L</tspan><tspan x="231.01" y="0">e</tspan><tspan class="cls-3" x="473.95" y="0">l</tspan><tspan x="605.24" y="0">e</tspan><tspan class="cls-4" x="848.18" y="0">k</tspan><tspan x="1093.43" y="0">a</tspan></text></g><g id="Прямоугольник_15" data-name="Прямоугольник 15"><path d="M83.18,381.56s91,17.85,171.18,13c45.65-2.76,116.7-8.4,146.73-33.89,36-30.54,30.93-73.57,30.93-73.57s-4.29,65.31-192.76,61.31C70.74,344.8,32.11,279.15,32.11,279.15s-10.47,43.25,37.4,70.68c31.85,18.24,128.75,24.52,128.75,24.52s-46.39,6.08-89.91-1.44c-42-7.27-81.27-28.13-81.27-28.13s8,42.05,50.34,67.8C120,438.45,197.1,448,232.07,447.19c64-1.49,128-13.7,128-13.7s-51.16,21.36-109.32,27.41C191,467.11,124.18,458,124.18,458s34.11,23,118,28.13C273,488,340.68,468.88,369.45,449.36c50.18-34.05,53.94-77.9,53.94-77.9s-90.54,37.09-177.66,39.67C162.85,413.59,83.18,381.56,83.18,381.56Z"/></g><g id="Прямоугольник_9_копия_2" data-name="Прямоугольник 9 копия 2"><path d="M322.14,67.32c9-7.1,74.57,55.51,74.57,55.51s-41.94-62.61-54.06-71c2.32-40.27-43.55-46.46-55.3-14.2C278,55.7,310.52,95.77,302.88,120.24c-10.14,32.49-55.92,7.1-94.45,31.63s-55.3,58.09-86.37,76.81c0,7.74,26.1,11,26.1,11s-29.83,18.72-26.1,65.84c37.9-21.3,68.35-16.14,101.28-29.7-12.42,71,8.53,77,8.53,77s-5.31-29.51,24.41-85.41c38.8-30.08,92-56.25,86.37-120C339.77,114.35,318.42,68,322.14,67.32Z"/></g></svg>